<svg width="24" height="23" viewBox="0 0 24 23" fill="none" xmlns="http://www.w3.org/2000/svg">
<path d="M4.50002 18.9625C4.49878 18.6914 4.55613 18.4227 4.66876 18.1719C4.7814 17.9212 4.94708 17.6933 5.15626 17.5016C5.36544 17.3099 5.61397 17.158 5.88752 17.0547C6.16106 16.9515 6.4542 16.8989 6.75002 16.9H19.5V3.15004H6.75002C6.4542 3.14891 6.16106 3.20148 5.88752 3.30472C5.61397 3.40797 5.36544 3.55985 5.15626 3.7516C4.94708 3.94335 4.7814 4.17117 4.66876 4.42191C4.55613 4.67266 4.49878 4.94137 4.50002 5.21254V18.9625Z" stroke-width="2" stroke-linecap="round" stroke-linejoin="round"/>
<path d="M4.5 18.9625V19.65H18" stroke-width="2" stroke-linecap="round" stroke-linejoin="round"/>
</svg>
