<svg width="88" height="89" viewBox="0 0 88 89" fill="none" xmlns="http://www.w3.org/2000/svg">
<path d="M76.4579 11.0051V77.2708C76.4502 78.2368 76.0668 79.1609 75.3903 79.8436C74.7138 80.5264 73.7987 80.9128 72.8425 80.9195H14.5379C13.5797 80.9195 12.6607 80.5352 11.9827 79.8511C11.3048 79.1669 10.9235 78.2388 10.9225 77.2708V11.0051C10.9302 10.0391 11.3136 9.11495 11.9901 8.43223C12.6666 7.74952 13.5817 7.36305 14.5379 7.35632H72.8425C74.8377 7.35632 76.4579 8.98943 76.4579 11.0051ZM69.1762 14.7126H18.2042V73.5632H69.1762V14.7126ZM41.1161 48.2612L56.5643 32.6584L61.7124 37.8593L41.1161 58.6667L26.9532 44.3586L32.105 39.1577L41.1161 48.2612Z" fill="#03B252"/>
<path d="M41.1162 48.261L56.5643 32.6582L61.7125 37.8591L41.1162 58.6665L26.9532 44.3584L32.1051 39.1575L41.1162 48.261Z" fill="#03B352"/>
</svg>
