<svg width="24" height="25" viewBox="0 0 24 25" fill="none" xmlns="http://www.w3.org/2000/svg">
<path d="M22.1836 12.436L13.1274 3.38441L12.5204 2.77738C12.382 2.63998 12.195 2.56287 12 2.56287C11.8051 2.56287 11.618 2.63998 11.4797 2.77738L1.81645 12.436C1.67473 12.5771 1.56272 12.7453 1.48705 12.9304C1.41137 13.1156 1.37355 13.3141 1.37583 13.5141C1.3852 14.3391 2.07192 14.9977 2.89692 14.9977H3.89302V22.6313H20.1071V14.9977H21.1243C21.525 14.9977 21.9024 14.8407 22.186 14.5571C22.3256 14.4179 22.4363 14.2524 22.5115 14.0701C22.5867 13.8879 22.6251 13.6925 22.6243 13.4953C22.6243 13.0969 22.4672 12.7196 22.1836 12.436ZM13.3125 20.9438H10.6875V16.1625H13.3125V20.9438ZM18.4196 13.3102V20.9438H14.8125V15.6C14.8125 15.0821 14.393 14.6625 13.875 14.6625H10.125C9.60708 14.6625 9.18755 15.0821 9.18755 15.6V20.9438H5.58052V13.3102H3.33052L12.0024 4.64535L12.5438 5.18675L20.6719 13.3102H18.4196Z"/>
</svg>
