<svg width="126" height="71" viewBox="0 0 126 71" fill="none" xmlns="http://www.w3.org/2000/svg">
<g clip-path="url(#clip0_6_81)">
<path d="M59.7781 70.6635H86.5623C87.6197 70.6635 87.6214 68.5953 86.5623 68.5953H59.7781C58.7207 68.5953 58.7189 70.6635 59.7781 70.6635Z" fill="#E6E6E6"/>
<path d="M52.5467 25.72H25.8524C25.5705 25.7204 25.3001 25.8616 25.1007 26.1125C24.9013 26.3635 24.7892 26.7038 24.7888 27.0587V33.733C26.1204 33.7724 26.9847 35.1553 27.1941 36.8341V42.8847H27.2952C27.3113 42.8848 27.3267 42.8928 27.3381 42.9071C27.3495 42.9214 27.3559 42.9408 27.3559 42.9611V46.1807C27.3559 46.2009 27.3495 46.2203 27.3381 46.2346C27.3267 46.2489 27.3113 46.257 27.2952 46.257H27.1941V65.717C27.1941 66.1446 27.1907 66.9246 27.1907 66.9246H52.5467C52.8287 66.9242 53.099 66.783 53.2984 66.532C53.4978 66.2811 53.61 65.9408 53.6104 65.5859V27.0587C53.61 26.7037 53.4978 26.3635 53.2984 26.1125C53.099 25.8616 52.8287 25.7204 52.5467 25.72Z" fill="#DC1637"/>
<path d="M102.144 3.75903V40.2801H55.4566V24.2006C55.456 23.4705 55.2253 22.7705 54.8151 22.2542C54.4049 21.738 53.8488 21.4476 53.2686 21.4469H44.5128V3.75903H102.144Z" fill="#DC1637"/>
<path d="M105.026 45.4286H55.5086V45.1741H104.824V2.16327C104.824 1.65721 104.664 1.17204 104.379 0.8142C104.095 0.456361 103.71 0.255075 103.307 0.254501H42.7443C42.3422 0.255075 41.9568 0.456361 41.6724 0.8142C41.3881 1.17204 41.2282 1.65721 41.2277 2.16327V21.282H41.0255V2.16327C41.026 1.58973 41.2073 1.03987 41.5295 0.634321C41.8517 0.228769 42.2886 0.000645483 42.7443 0H103.307C103.763 0.000644572 104.2 0.228766 104.522 0.634318C104.844 1.03987 105.026 1.58973 105.026 2.16327V45.4286Z" fill="#3F3D56"/>
<path d="M100.334 53.1909H55.5087V52.9364H100.334C101.525 52.9347 102.666 52.3388 103.508 51.2795C104.349 50.2202 104.823 48.7839 104.824 47.2858V45.4286H55.5087V45.1741H105.026V47.2858C105.025 48.8514 104.53 50.3523 103.65 51.4594C102.771 52.5664 101.578 53.1891 100.334 53.1909Z" fill="#3F3D56"/>
<path d="M87.031 65.6615C84.5321 62.6416 82.8883 58.7013 82.3598 53.1909H63.9428C63.7555 58.3462 62.1221 62.2125 59.1756 65.6479L58.8643 65.6616C61.9042 62.1942 63.5787 58.2995 63.7449 53.0586L63.7488 52.9364H82.5397L82.5501 53.0489C83.0691 58.6526 84.7473 62.6184 87.3078 65.6411L87.031 65.6615Z" fill="#3F3D56"/>
<path d="M53.2197 70.9263H24.8493V70.6718H53.2197C53.7997 70.671 54.3558 70.3806 54.766 69.8644C55.1762 69.3481 55.4069 68.6482 55.4075 67.9182V24.2591C55.4069 23.529 55.1762 22.8291 54.766 22.3129C54.3558 21.7967 53.7997 21.5063 53.2197 21.5055H24.8493C24.2692 21.5063 23.7131 21.7967 23.303 22.3129C22.8928 22.8291 22.6621 23.529 22.6614 24.2591V33.681H22.4592V24.2591C22.4599 23.4616 22.712 22.697 23.1601 22.133C23.6081 21.5691 24.2156 21.2519 24.8493 21.251H53.2197C53.8533 21.2519 54.4609 21.5691 54.9089 22.133C55.357 22.697 55.609 23.4616 55.6097 24.2591V67.9182C55.609 68.7157 55.357 69.4803 54.9089 70.0442C54.4609 70.6082 53.8533 70.9254 53.2197 70.9263Z" fill="#3F3D56"/>
<path d="M39.0345 24.4708C38.8989 24.4708 38.7663 24.4202 38.6536 24.3254C38.5408 24.2305 38.453 24.0958 38.4011 23.9381C38.3492 23.7804 38.3356 23.6069 38.3621 23.4396C38.3885 23.2722 38.4538 23.1184 38.5497 22.9977C38.6456 22.8771 38.7677 22.7949 38.9007 22.7616C39.0337 22.7283 39.1716 22.7454 39.2968 22.8107C39.4221 22.876 39.5292 22.9866 39.6045 23.1285C39.6799 23.2704 39.7201 23.4372 39.7201 23.6079C39.7199 23.8366 39.6476 24.056 39.5191 24.2177C39.3905 24.3795 39.2163 24.4705 39.0345 24.4708ZM39.0345 22.9445C38.9302 22.9445 38.8283 22.9834 38.7416 23.0563C38.6549 23.1292 38.5874 23.2328 38.5475 23.354C38.5076 23.4752 38.4971 23.6086 38.5175 23.7373C38.5378 23.866 38.588 23.9842 38.6618 24.077C38.7355 24.1698 38.8294 24.233 38.9317 24.2586C39.0339 24.2842 39.1399 24.271 39.2362 24.2208C39.3325 24.1706 39.4149 24.0856 39.4728 23.9765C39.5307 23.8674 39.5616 23.7391 39.5616 23.6079C39.5615 23.432 39.5059 23.2634 39.407 23.139C39.3082 23.0146 39.1742 22.9447 39.0345 22.9445Z" fill="#3F3D56"/>
<path d="M39.0345 69.9508C38.8615 69.9508 38.6923 69.8862 38.5485 69.7652C38.4046 69.6442 38.2925 69.4723 38.2263 69.2711C38.16 69.0699 38.1427 68.8485 38.1765 68.6349C38.2102 68.4213 38.2935 68.2251 38.4159 68.0712C38.5382 67.9172 38.6941 67.8123 38.8638 67.7698C39.0335 67.7273 39.2094 67.7491 39.3693 67.8325C39.5291 67.9158 39.6658 68.0569 39.7619 68.238C39.858 68.419 39.9093 68.6319 39.9093 68.8497C39.9091 69.1416 39.8168 69.4215 39.6528 69.6279C39.4888 69.8343 39.2664 69.9504 39.0345 69.9508ZM39.0345 68.0032C38.9015 68.0032 38.7714 68.0528 38.6608 68.1458C38.5502 68.2389 38.464 68.3711 38.4131 68.5258C38.3622 68.6804 38.3489 68.8507 38.3748 69.0149C38.4008 69.1791 38.4648 69.3299 38.5589 69.4483C38.653 69.5667 38.7728 69.6473 38.9033 69.68C39.0338 69.7127 39.169 69.6959 39.2919 69.6318C39.4148 69.5677 39.5199 69.4592 39.5938 69.32C39.6677 69.1808 39.7071 69.0171 39.7071 68.8497C39.7069 68.6252 39.636 68.4101 39.5099 68.2514C39.3838 68.0927 39.2128 68.0034 39.0345 68.0032Z" fill="#3F3D56"/>
<path d="M24.5644 71H15.173C14.466 70.9989 13.7882 70.645 13.2883 70.0158C12.7883 69.3866 12.5071 68.5335 12.5063 67.6437V37.0371C12.5071 36.1473 12.7884 35.2942 13.2883 34.665C13.7882 34.0358 14.466 33.6819 15.173 33.6809H24.5644C25.2714 33.6819 25.9492 34.0358 26.4491 34.665C26.9491 35.2942 27.2303 36.1473 27.2311 37.0371V42.5143C27.279 42.5395 27.3199 42.5819 27.3486 42.6362C27.3774 42.6906 27.3928 42.7544 27.3929 42.8197L27.3929 46.3836C27.3928 46.449 27.3774 46.5128 27.3486 46.5671C27.3199 46.6215 27.2789 46.6639 27.2311 46.6891V67.6438C27.2303 68.5336 26.949 69.3867 26.4491 70.0158C25.9492 70.645 25.2714 70.9989 24.5644 71ZM15.173 33.9354C14.5196 33.9363 13.8932 34.2634 13.4312 34.8449C12.9692 35.4264 12.7093 36.2148 12.7086 37.0371V67.6437C12.7093 68.466 12.9692 69.2544 13.4312 69.8359C13.8932 70.4174 14.5196 70.7445 15.173 70.7454H24.5644C25.2178 70.7445 25.8442 70.4174 26.3062 69.836C26.7682 69.2545 27.0281 68.4661 27.0288 67.6438V46.46H27.13C27.146 46.46 27.1615 46.4519 27.1729 46.4376C27.1842 46.4233 27.1906 46.4039 27.1907 46.3836L27.1907 42.8197C27.1906 42.7995 27.1842 42.7801 27.1729 42.7657C27.1615 42.7514 27.1461 42.7434 27.13 42.7433H27.0288V37.0371C27.0281 36.2148 26.7682 35.4264 26.3062 34.8449C25.8442 34.2634 25.2178 33.9363 24.5644 33.9354H15.173Z" fill="#3F3D56"/>
<path d="M24.668 34.6482H23.4421C23.4985 34.8222 23.52 35.0109 23.5047 35.1978C23.4895 35.3847 23.438 35.564 23.3547 35.7199C23.2715 35.8758 23.159 36.0036 23.0273 36.0919C22.8956 36.1803 22.7486 36.2265 22.5993 36.2265H17.2191C17.0698 36.2265 16.9229 36.1803 16.7911 36.0919C16.6594 36.0036 16.5469 35.8758 16.4637 35.7199C16.3804 35.564 16.3289 35.3847 16.3137 35.1978C16.2984 35.0109 16.32 34.8221 16.3763 34.6482H15.2314C14.7232 34.6482 14.2359 34.9022 13.8766 35.3545C13.5173 35.8067 13.3154 36.42 13.3154 37.0595V67.6213C13.3154 68.2608 13.5173 68.8741 13.8766 69.3263C14.2359 69.7786 14.7232 70.0326 15.2314 70.0326H24.668C25.1761 70.0326 25.6634 69.7786 26.0227 69.3263C26.3821 68.8741 26.5839 68.2608 26.5839 67.6213V37.0595C26.5839 36.42 26.382 35.8067 26.0227 35.3545C25.6634 34.9022 25.1761 34.6482 24.668 34.6482Z" fill="#DC1637"/>
<path d="M125.879 70.9502H0.120182C0.104338 70.9503 0.0886413 70.9464 0.0739884 70.9389C0.0593356 70.9313 0.0460148 70.9201 0.0347928 70.906C0.0235708 70.892 0.0146674 70.8752 0.008592 70.8568C0.00251657 70.8384 -0.000610352 70.8187 -0.000610352 70.7987C-0.000610352 70.7788 0.00251657 70.759 0.008592 70.7406C0.0146674 70.7222 0.0235708 70.7055 0.0347928 70.6914C0.0460148 70.6773 0.0593356 70.6662 0.0739884 70.6586C0.0886413 70.651 0.104338 70.6472 0.120182 70.6472H125.879C125.895 70.6472 125.911 70.651 125.926 70.6586C125.94 70.6662 125.954 70.6773 125.965 70.6914C125.976 70.7055 125.985 70.7222 125.991 70.7406C125.997 70.759 126 70.7788 126 70.7987C126 70.8187 125.997 70.8384 125.991 70.8568C125.985 70.8752 125.976 70.892 125.965 70.906C125.954 70.9201 125.94 70.9313 125.926 70.9389C125.911 70.9464 125.895 70.9503 125.879 70.9502Z" fill="#3F3D56"/>
<path d="M87.0934 70.8788H59.0867C58.8078 70.8791 58.5315 70.8102 58.2737 70.6761C58.0159 70.5419 57.7816 70.3451 57.5843 70.0969C57.3869 69.8487 57.2304 69.5541 57.1236 69.2297C57.0168 68.9054 56.9618 68.5577 56.9618 68.2066C56.9618 67.8555 57.0168 67.5078 57.1236 67.1835C57.2304 66.8591 57.3869 66.5644 57.5843 66.3162C57.7816 66.0681 58.0159 65.8713 58.2737 65.7371C58.5315 65.6029 58.8078 65.534 59.0867 65.5343H87.0934C87.6562 65.5349 88.1958 65.8167 88.5937 66.3178C88.9915 66.8188 89.2149 67.4982 89.2149 68.2066C89.2149 68.9149 88.9915 69.5943 88.5937 70.0954C88.1958 70.5965 87.6562 70.8783 87.0934 70.8788ZM59.0867 65.7888C58.5773 65.7888 58.0886 66.0435 57.7284 66.497C57.3681 66.9504 57.1657 67.5653 57.1657 68.2066C57.1657 68.8478 57.3681 69.4628 57.7284 69.9162C58.0886 70.3696 58.5773 70.6244 59.0867 70.6244H87.0934C87.6029 70.6244 88.0915 70.3696 88.4518 69.9162C88.812 69.4628 89.0144 68.8478 89.0144 68.2066C89.0144 67.5653 88.812 66.9504 88.4518 66.497C88.0915 66.0435 87.6029 65.7888 87.0934 65.7888H59.0867Z" fill="#3F3D56"/>
<path d="M107.429 50.5323L108.213 52.5964L114.912 49.7709L113.754 46.7246L107.429 50.5323Z" fill="#FFB8B8"/>
<path d="M108.203 57.4937L105.738 51.0068L107.73 49.8081L109.315 53.9803C109.548 54.5942 109.578 55.2995 109.398 55.9412C109.218 56.5829 108.843 57.1084 108.356 57.402L108.203 57.4937Z" fill="#2F2E41"/>
<path d="M105.85 68.9644L107.667 68.8872L107.743 59.9863L105.613 60.1445L105.85 68.9644Z" fill="#FFB8B8"/>
<path d="M111.192 70.9836H105.479V68.2054H109.153C109.694 68.2054 110.213 68.4758 110.595 68.9569C110.977 69.4381 111.192 70.0907 111.192 70.7712V70.9836Z" fill="#2F2E41"/>
<path d="M105.999 67.6272C105.847 67.6272 105.699 67.5629 105.579 67.4446C105.459 67.3263 105.374 67.1609 105.338 66.9746C104.343 61.9418 100.639 36.5836 103.914 31.6032L103.943 31.5598L103.986 31.546C104.216 31.4728 108.55 29.7841 111.092 32.42L111.122 32.4508L112.537 37.6066L116.352 44.7341C116.561 45.1244 116.706 45.5635 116.777 46.0255C116.849 46.4874 116.846 46.9627 116.769 47.4232C116.692 47.8838 116.542 48.3201 116.329 48.7065C116.115 49.0929 115.842 49.4214 115.526 49.6726L110.517 53.6513C110.396 53.7433 110.255 53.7859 110.114 53.7734C109.973 53.7609 109.838 53.6939 109.729 53.5815C109.637 53.4856 109.566 53.3614 109.523 53.221L108.471 49.9084C108.408 49.7076 108.407 49.4845 108.468 49.2828C108.529 49.081 108.647 48.9152 108.8 48.8176L111.147 47.3406C111.211 47.296 111.267 47.2343 111.31 47.1597C111.354 47.0852 111.383 46.9996 111.398 46.9091C111.404 46.8271 111.395 46.7444 111.37 46.6681C111.346 46.5918 111.307 46.5241 111.257 46.4708L108.532 43.5147C108.472 43.449 108.397 43.4069 108.318 43.3937C108.239 43.3805 108.158 43.3968 108.086 43.4404C108.014 43.4841 107.953 43.5533 107.912 43.6395C107.871 43.7257 107.851 43.8252 107.854 43.9258L108.529 66.3663C108.535 66.577 108.48 66.7832 108.374 66.9461C108.267 67.109 108.117 67.2171 107.952 67.2501L106.109 67.6162C106.073 67.6235 106.036 67.6272 105.999 67.6272Z" fill="#2F2E41"/>
<path d="M110.699 33.3347C110.684 33.3347 110.668 33.334 110.653 33.3325L103.858 32.6991C103.764 32.6905 103.673 32.6546 103.591 32.5943C103.51 32.534 103.44 32.4508 103.388 32.3513C103.336 32.2518 103.304 32.1385 103.292 32.0204C103.281 31.9023 103.291 31.7824 103.322 31.6701C103.74 30.1535 103.792 28.515 103.47 26.9618C103.027 24.7658 103.017 20.6825 103.05 18.4441C103.057 18.0646 103.178 17.7026 103.389 17.4304C103.599 17.1582 103.883 16.9957 104.184 16.9753L104.184 16.9723L104.321 16.9744C105.428 16.9939 107.459 17.0933 109.121 17.5286C109.681 17.6745 110.185 18.0561 110.55 18.6105C110.915 19.165 111.119 19.8593 111.129 20.5791C111.166 22.6573 111.172 25.4703 110.984 27.0693C110.826 28.4183 111.118 31.009 111.306 32.4331C111.321 32.5441 111.316 32.6576 111.292 32.766C111.269 32.8744 111.226 32.9749 111.169 33.0607C111.111 33.1464 111.039 33.2154 110.958 33.2627C110.877 33.31 110.789 33.3346 110.699 33.3347H110.699Z" fill="#3F3D56"/>
<path d="M113.125 41.4864C112.944 41.3773 112.784 41.2196 112.657 41.0243C112.529 40.8291 112.438 40.6011 112.388 40.3564C112.338 40.1117 112.332 39.8562 112.369 39.608C112.406 39.3598 112.486 39.1249 112.603 38.9198L109.465 21.8884H111.837L114.607 38.5841C114.868 38.8546 115.041 39.236 115.093 39.6562C115.145 40.0763 115.073 40.506 114.89 40.8638C114.707 41.2215 114.427 41.4825 114.102 41.5972C113.776 41.712 113.429 41.6726 113.125 41.4864H113.125Z" fill="#FFB8B8"/>
<path d="M98.2627 23.7334L102.02 19.2605L103.435 21.7544L99.8966 25.6735L104.537 30.3115C104.571 30.3086 104.604 30.305 104.638 30.305C104.924 30.3047 105.203 30.4079 105.444 30.6023C105.684 30.7967 105.874 31.0741 105.992 31.4012C106.111 31.7284 106.151 32.0915 106.11 32.4471C106.069 32.8027 105.947 33.1357 105.759 33.4063C105.571 33.6769 105.325 33.8737 105.05 33.973C104.776 34.0724 104.485 34.0701 104.211 33.9665C103.938 33.8629 103.694 33.6624 103.509 33.3889C103.323 33.1154 103.205 32.7805 103.167 32.4243L103.152 32.4427L98.3222 27.1745C98.1275 26.9621 97.9703 26.7008 97.8608 26.4073C97.7512 26.1139 97.6917 25.7948 97.6861 25.4706C97.6805 25.1464 97.7289 24.8243 97.8282 24.5251C97.9275 24.2259 98.0755 23.9562 98.2627 23.7334Z" fill="#FFB8B8"/>
<path d="M109.715 22.9798C109.599 22.9803 109.485 22.9391 109.387 22.8612C109.288 22.7833 109.21 22.6718 109.16 22.5397C108.861 21.7443 108.655 20.8984 108.548 20.0285C108.385 18.6076 109.17 17.7624 109.969 17.5782C110.745 17.3991 111.691 17.8288 111.933 19.1954C111.953 19.311 111.969 19.4279 111.98 19.5456C112.076 20.5816 112.168 21.3873 112.25 21.9405C112.267 22.0493 112.264 22.1612 112.243 22.2687C112.222 22.3761 112.183 22.4767 112.129 22.5636C112.074 22.6505 112.006 22.7217 111.927 22.7724C111.849 22.8231 111.763 22.8521 111.675 22.8575L109.747 22.9788C109.736 22.9795 109.725 22.9798 109.715 22.9798Z" fill="#3F3D56"/>
<path d="M107.025 15.5084C109.294 15.5084 111.133 13.1935 111.133 10.3379C111.133 7.48227 109.294 5.16736 107.025 5.16736C104.756 5.16736 102.917 7.48227 102.917 10.3379C102.917 13.1935 104.756 15.5084 107.025 15.5084Z" fill="#2F2E41"/>
<path d="M107.05 15.9131C108.907 15.9131 110.413 14.0179 110.413 11.68C110.413 9.34212 108.907 7.4469 107.05 7.4469C105.192 7.4469 103.686 9.34212 103.686 11.68C103.686 14.0179 105.192 15.9131 107.05 15.9131Z" fill="#FFB8B8"/>
<path d="M101.08 20.9196C100.994 20.8212 100.932 20.6941 100.902 20.553C100.871 20.412 100.873 20.263 100.907 20.1233C101.113 19.2823 101.416 18.4835 101.804 17.7517C102.447 16.5656 103.479 16.61 104.167 17.153C104.835 17.6813 105.302 18.8024 104.747 20.0155C104.699 20.118 104.648 20.2175 104.593 20.3135C104.108 21.1596 103.743 21.831 103.507 22.3094C103.461 22.4034 103.399 22.4838 103.326 22.5452C103.252 22.6066 103.17 22.6475 103.083 22.6652C102.996 22.683 102.907 22.6771 102.822 22.648C102.738 22.6189 102.659 22.5672 102.591 22.4965L101.104 20.9457C101.096 20.9372 101.088 20.9285 101.08 20.9196Z" fill="#3F3D56"/>
<path d="M106.227 5.72012C105.4 5.09931 105.221 3.55336 105.714 2.51236C106.206 1.47136 107.202 0.928331 108.164 0.892541C109.538 0.841417 110.866 1.70274 111.828 2.9392C112.79 4.17565 113.425 5.75839 113.909 7.37837C114.392 8.99836 114.74 10.6785 115.216 12.3018C115.461 13.1348 115.762 13.9901 116.322 14.5311C116.881 15.072 117.771 15.1695 118.249 14.5167C118.248 15.5614 117.611 16.511 116.822 16.8344C116.033 17.1578 115.14 16.9136 114.448 16.3365C113.248 15.3355 112.668 13.508 112.337 11.7444C112.006 9.98082 111.843 8.13278 111.177 6.52606C110.901 5.86034 110.523 5.22796 109.991 4.88828C109.459 4.5486 108.75 4.57091 108.322 5.09401C108.123 5.33631 107.995 5.66669 107.77 5.86866C107.628 5.98071 107.467 6.05034 107.3 6.07222C107.133 6.0941 106.964 6.06767 106.807 5.99493C106.493 5.84634 106.199 5.63764 105.935 5.3762" fill="#2F2E41"/>
<path d="M103.537 8.81984C103.861 9.36836 104.27 9.82861 104.739 10.1729C105.209 10.5171 105.728 10.7382 106.267 10.8229C106.806 10.9076 107.353 10.854 107.875 10.6655C108.398 10.477 108.884 10.1574 109.305 9.72599C109.632 9.39158 109.935 8.93073 109.915 8.40149C109.894 7.8594 109.542 7.43363 109.182 7.13381C108.237 6.35157 107.099 6.02267 105.977 6.20698C105.337 6.31526 104.695 6.60892 104.241 7.18802C103.788 7.76712 103.562 8.66778 103.796 9.42561" fill="#2F2E41"/>
</g>
<defs>
<clipPath id="clip0_6_81">
<rect width="126" height="71" fill="white"/>
</clipPath>
</defs>
</svg>
