<svg width="24" height="25" viewBox="0 0 24 25" fill="none" xmlns="http://www.w3.org/2000/svg">
<path d="M17.5781 15.9906H9.59375C9.53359 15.9906 9.48438 16.0398 9.48438 16.1V16.8656C9.48438 16.9258 9.53359 16.975 9.59375 16.975H17.5781C17.6383 16.975 17.6875 16.9258 17.6875 16.8656V16.1C17.6875 16.0398 17.6383 15.9906 17.5781 15.9906ZM17.5781 8.22498H9.59375C9.53359 8.22498 9.48438 8.27419 9.48438 8.33435V9.09998C9.48438 9.16013 9.53359 9.20935 9.59375 9.20935H17.5781C17.6383 9.20935 17.6875 9.16013 17.6875 9.09998V8.33435C17.6875 8.27419 17.6383 8.22498 17.5781 8.22498ZM17.5781 12.1078H9.59375C9.53359 12.1078 9.48438 12.157 9.48438 12.2172V12.9828C9.48438 13.0429 9.53359 13.0922 9.59375 13.0922H17.5781C17.6383 13.0922 17.6875 13.0429 17.6875 12.9828V12.2172C17.6875 12.157 17.6383 12.1078 17.5781 12.1078ZM7.95312 15.3344H6.36719C6.33711 15.3344 6.3125 15.359 6.3125 15.389V15.8539C6.3125 15.884 6.33711 15.9086 6.36719 15.9086H7.35703V16.1888H6.86895C6.83887 16.1888 6.81426 16.2135 6.81426 16.2435V16.7084C6.81426 16.7385 6.83887 16.7631 6.86895 16.7631H7.35703V17.057H6.36719C6.33711 17.057 6.3125 17.0816 6.3125 17.1117V17.5765C6.3125 17.6066 6.33711 17.6312 6.36719 17.6312H7.95312C7.9832 17.6312 8.00781 17.6066 8.00781 17.5765V15.389C8.00781 15.359 7.9832 15.3344 7.95312 15.3344ZM6.36719 8.17029H6.88672V9.81091C6.88672 9.84099 6.91133 9.8656 6.94141 9.8656H7.48828C7.51836 9.8656 7.54297 9.84099 7.54297 9.81091V7.6781C7.54297 7.61794 7.49375 7.56873 7.43359 7.56873H6.36719C6.33711 7.56873 6.3125 7.59333 6.3125 7.62341V8.1156C6.3125 8.14568 6.33711 8.17029 6.36719 8.17029ZM7.95312 11.4515H6.36719C6.33711 11.4515 6.3125 11.4761 6.3125 11.5062V11.9984C6.3125 12.0285 6.33711 12.0531 6.36719 12.0531H7.30234L6.34121 13.1154C6.32308 13.1358 6.31289 13.162 6.3125 13.1892V13.6937C6.3125 13.7238 6.33711 13.7484 6.36719 13.7484H7.95312C7.9832 13.7484 8.00781 13.7238 8.00781 13.6937V13.2015C8.00781 13.1715 7.9832 13.1469 7.95312 13.1469H7.01797L7.9791 12.0845C7.99723 12.0642 8.00742 12.038 8.00781 12.0107V11.5062C8.00781 11.4761 7.9832 11.4515 7.95312 11.4515Z" />
<rect x="0.5" y="1.09998" width="23" height="23" rx="6.5"/>
</svg>
