<svg width="24" height="25" viewBox="0 0 24 25" fill="none" xmlns="http://www.w3.org/2000/svg">
<path d="M20.1212 18.4969C19.679 17.4496 19.0374 16.4983 18.2321 15.6961C17.4292 14.8915 16.4781 14.25 15.4313 13.807C15.4219 13.8023 15.4126 13.8 15.4032 13.7953C16.8633 12.7406 17.8126 11.0226 17.8126 9.08435C17.8126 5.87341 15.211 3.27185 12.0001 3.27185C8.78912 3.27185 6.18756 5.87341 6.18756 9.08435C6.18756 11.0226 7.13678 12.7406 8.59693 13.7976C8.58756 13.8023 8.57818 13.8047 8.56881 13.8094C7.51881 14.2523 6.57662 14.8875 5.76803 15.6984C4.96344 16.5013 4.32194 17.4524 3.87896 18.4992C3.44378 19.524 3.20908 20.6227 3.18756 21.7359C3.18693 21.7609 3.19132 21.7858 3.20046 21.8091C3.20961 21.8324 3.22332 21.8536 3.24079 21.8715C3.25826 21.8894 3.27915 21.9037 3.30221 21.9134C3.32527 21.9231 3.35004 21.9281 3.37506 21.9281H4.78131C4.88443 21.9281 4.96646 21.8461 4.96881 21.7453C5.01568 19.9359 5.74225 18.2414 7.02662 16.957C8.35553 15.6281 10.1204 14.8969 12.0001 14.8969C13.8797 14.8969 15.6446 15.6281 16.9735 16.957C18.2579 18.2414 18.9844 19.9359 19.0313 21.7453C19.0337 21.8484 19.1157 21.9281 19.2188 21.9281H20.6251C20.6501 21.9281 20.6749 21.9231 20.6979 21.9134C20.721 21.9037 20.7419 21.8894 20.7593 21.8715C20.7768 21.8536 20.7905 21.8324 20.7997 21.8091C20.8088 21.7858 20.8132 21.7609 20.8126 21.7359C20.7891 20.6156 20.5571 19.5258 20.1212 18.4969ZM12.0001 13.1156C10.9243 13.1156 9.91178 12.6961 9.15006 11.9344C8.38834 11.1726 7.96881 10.1601 7.96881 9.08435C7.96881 8.00857 8.38834 6.99607 9.15006 6.23435C9.91178 5.47263 10.9243 5.0531 12.0001 5.0531C13.0758 5.0531 14.0883 5.47263 14.8501 6.23435C15.6118 6.99607 16.0313 8.00857 16.0313 9.08435C16.0313 10.1601 15.6118 11.1726 14.8501 11.9344C14.0883 12.6961 13.0758 13.1156 12.0001 13.1156Z" />
</svg>
