<svg width="300" height="282" viewBox="0 0 300 282" fill="none" xmlns="http://www.w3.org/2000/svg">
<g clip-path="url(#clip0_3_254)">
<path d="M186.395 163.871H76.5085C72.7821 163.866 69.2096 162.321 66.5746 159.574C63.9396 156.826 62.4575 153.101 62.4532 149.216V14.6551C62.4575 10.7697 63.9396 7.04465 66.5746 4.29723C69.2096 1.54982 72.7821 0.00438898 76.5085 0H178.74L200.45 18.0431V149.216C200.446 153.101 198.964 156.826 196.329 159.574C193.694 162.321 190.122 163.866 186.395 163.871Z" fill="#E6E6E6"/>
<path d="M76.5084 4.21887C73.8548 4.22199 71.3107 5.32252 69.4343 7.27902C67.5579 9.23551 66.5024 11.8882 66.4994 14.6551V149.216C66.5024 151.983 67.5579 154.635 69.4343 156.592C71.3107 158.548 73.8548 159.649 76.5084 159.652H186.395C189.049 159.649 191.593 158.548 193.469 156.592C195.346 154.635 196.401 151.983 196.404 149.216V20.0755L177.325 4.21887H76.5084Z" fill="white"/>
<path d="M165.022 43.3455H114.992C114.685 43.3455 114.381 43.2824 114.097 43.1598C113.813 43.0371 113.555 42.8574 113.337 42.6307C113.12 42.4041 112.948 42.1351 112.83 41.839C112.712 41.5429 112.652 41.2256 112.652 40.9051C112.652 40.5846 112.712 40.2672 112.83 39.9711C112.948 39.6751 113.12 39.406 113.337 39.1794C113.555 38.9528 113.813 38.773 114.097 38.6504C114.381 38.5277 114.685 38.4646 114.992 38.4646H165.022C165.33 38.4646 165.634 38.5277 165.918 38.6504C166.202 38.773 166.46 38.9528 166.677 39.1794C166.895 39.406 167.067 39.6751 167.185 39.9711C167.302 40.2672 167.363 40.5846 167.363 40.9051C167.363 41.2256 167.302 41.5429 167.185 41.839C167.067 42.1351 166.895 42.4041 166.677 42.6307C166.46 42.8574 166.202 43.0371 165.918 43.1598C165.634 43.2824 165.33 43.3455 165.022 43.3455Z" fill="#CCCCCC"/>
<path d="M174.677 51.5821H114.992C114.372 51.5821 113.776 51.325 113.337 50.8673C112.898 50.4096 112.652 49.7889 112.652 49.1416C112.652 48.4944 112.898 47.8736 113.337 47.416C113.776 46.9583 114.372 46.7012 114.992 46.7012H174.677C175.298 46.7012 175.893 46.9583 176.332 47.416C176.771 47.8736 177.018 48.4944 177.018 49.1416C177.018 49.7889 176.771 50.4096 176.332 50.8673C175.893 51.325 175.298 51.5821 174.677 51.5821Z" fill="#CCCCCC"/>
<path d="M165.022 80.2576H114.992C114.372 80.2576 113.776 80.0005 113.337 79.5428C112.898 79.0852 112.652 78.4644 112.652 77.8172C112.652 77.1699 112.898 76.5492 113.337 76.0915C113.776 75.6338 114.372 75.3767 114.992 75.3767H165.022C165.643 75.3767 166.238 75.6338 166.677 76.0915C167.116 76.5492 167.363 77.1699 167.363 77.8172C167.363 78.4644 167.116 79.0852 166.677 79.5428C166.238 80.0005 165.643 80.2576 165.022 80.2576Z" fill="#CCCCCC"/>
<path d="M174.677 88.4942H114.992C114.372 88.4942 113.776 88.2371 113.337 87.7794C112.898 87.3217 112.652 86.701 112.652 86.0538C112.652 85.4065 112.898 84.7858 113.337 84.3281C113.776 83.8704 114.372 83.6133 114.992 83.6133H174.677C175.298 83.6133 175.893 83.8704 176.332 84.3281C176.771 84.7858 177.018 85.4065 177.018 86.0538C177.018 86.701 176.771 87.3217 176.332 87.7794C175.893 88.2371 175.298 88.4942 174.677 88.4942Z" fill="#CCCCCC"/>
<path d="M165.022 117.17H114.992C114.372 117.17 113.776 116.913 113.337 116.455C112.898 115.997 112.652 115.377 112.652 114.729C112.652 114.082 112.898 113.461 113.337 113.004C113.776 112.546 114.372 112.289 114.992 112.289H165.022C165.643 112.289 166.238 112.546 166.677 113.004C167.116 113.461 167.363 114.082 167.363 114.729C167.363 115.377 167.116 115.997 166.677 116.455C166.238 116.913 165.643 117.17 165.022 117.17Z" fill="#CCCCCC"/>
<path d="M174.677 125.406H114.992C114.372 125.406 113.776 125.149 113.337 124.692C112.898 124.234 112.652 123.613 112.652 122.966C112.652 122.319 112.898 121.698 113.337 121.24C113.776 120.783 114.372 120.525 114.992 120.525H174.677C175.298 120.525 175.893 120.783 176.332 121.24C176.771 121.698 177.018 122.319 177.018 122.966C177.018 123.613 176.771 124.234 176.332 124.692C175.893 125.149 175.298 125.406 174.677 125.406Z" fill="#CCCCCC"/>
<path d="M94.1586 53.649C98.7275 53.649 102.431 49.7871 102.431 45.0233C102.431 40.2594 98.7275 36.3976 94.1586 36.3976C89.5898 36.3976 85.886 40.2594 85.886 45.0233C85.886 49.7871 89.5898 53.649 94.1586 53.649Z" fill="#DC1637"/>
<path d="M93.3389 48.3138C93.1528 48.3141 92.9717 48.2514 92.8228 48.1349L92.8135 48.1277L90.8693 46.577C90.6877 46.4316 90.5689 46.2169 90.539 45.9801C90.5091 45.7434 90.5706 45.504 90.7099 45.3145C90.8493 45.125 91.0551 45.0009 91.2821 44.9695C91.5091 44.9381 91.7388 45.002 91.9207 45.1471L93.18 46.154L96.1557 42.1061C96.2247 42.0123 96.3108 41.9335 96.409 41.8744C96.5071 41.8152 96.6156 41.7768 96.728 41.7613C96.8404 41.7458 96.9547 41.7536 97.0643 41.7841C97.1738 41.8147 97.2765 41.8674 97.3665 41.9394L97.3668 41.9396L97.3483 41.9663L97.3673 41.9396C97.5489 42.0851 97.6677 42.2998 97.6976 42.5365C97.7276 42.7733 97.6662 43.0127 97.527 43.2023L94.0269 47.9614C93.9459 48.0711 93.8418 48.1598 93.7226 48.2207C93.6035 48.2817 93.4724 48.3131 93.3397 48.3127L93.3389 48.3138Z" fill="white"/>
<path d="M95.0104 90.5611C99.5793 90.5611 103.283 86.6993 103.283 81.9354C103.283 77.1716 99.5793 73.3097 95.0104 73.3097C90.4416 73.3097 86.7378 77.1716 86.7378 81.9354C86.7378 86.6993 90.4416 90.5611 95.0104 90.5611Z" fill="#CCCCCC"/>
<path d="M94.1586 127.473C98.7275 127.473 102.431 123.611 102.431 118.848C102.431 114.084 98.7275 110.222 94.1586 110.222C89.5898 110.222 85.886 114.084 85.886 118.848C85.886 123.611 89.5898 127.473 94.1586 127.473Z" fill="#CCCCCC"/>
<path d="M200.028 18.6237H183.021C181.78 18.6237 180.589 18.1095 179.711 17.1941C178.833 16.2788 178.34 15.0373 178.34 13.7428V0.646007C178.34 0.588668 178.356 0.532485 178.385 0.48391C178.414 0.435335 178.456 0.39633 178.505 0.371368C178.555 0.346406 178.61 0.336497 178.665 0.342779C178.719 0.34906 178.771 0.371278 178.814 0.406883L200.209 18.0795C200.257 18.1189 200.292 18.1727 200.309 18.2335C200.326 18.2943 200.324 18.3591 200.304 18.419C200.284 18.4788 200.247 18.5306 200.197 18.5673C200.148 18.604 200.089 18.6237 200.028 18.6237Z" fill="#E6E6E6"/>
<path d="M84.9057 189.083L19.8912 203.372C18.0124 203.782 16.054 203.399 14.4459 202.306C12.8377 201.213 11.711 199.5 11.3129 197.542L0.156524 142.354C-0.237294 140.395 0.13024 138.353 1.1785 136.677C2.22675 135 3.87012 133.825 5.74806 133.41L70.7626 119.121C72.6414 118.71 74.5997 119.094 76.2079 120.187C77.8161 121.28 78.9428 122.993 79.3409 124.951L90.4973 180.139C90.8911 182.098 90.5235 184.14 89.4753 185.816C88.427 187.493 86.7837 188.668 84.9057 189.083Z" fill="white"/>
<path d="M84.9057 189.083L19.8912 203.372C18.0124 203.782 16.054 203.399 14.4459 202.306C12.8377 201.213 11.711 199.5 11.3129 197.542L0.156524 142.354C-0.237294 140.395 0.13024 138.353 1.1785 136.677C2.22675 135 3.87012 133.825 5.74806 133.41L70.7626 119.121C72.6414 118.71 74.5997 119.094 76.2079 120.187C77.8161 121.28 78.9428 122.993 79.3409 124.951L90.4973 180.139C90.8911 182.098 90.5235 184.14 89.4753 185.816C88.427 187.493 86.7837 188.668 84.9057 189.083ZM5.92375 134.279C4.26675 134.645 2.81673 135.682 1.8918 137.161C0.966867 138.641 0.642563 140.443 0.990038 142.171L12.1464 197.358C12.4977 199.086 13.4918 200.598 14.9108 201.562C16.3298 202.527 18.0577 202.865 19.7155 202.503L84.73 188.214C86.387 187.848 87.837 186.811 88.762 185.332C89.6869 183.852 90.0112 182.05 89.6637 180.322L78.5073 125.135C78.1561 123.407 77.162 121.895 75.743 120.93C74.324 119.966 72.5961 119.628 70.9383 119.99L5.92375 134.279Z" fill="#3F3D56"/>
<path d="M66.723 137.318L33.9111 144.529C33.6239 144.599 33.3222 144.552 33.0669 144.398C32.8116 144.245 32.6217 143.996 32.5356 143.702C32.4963 143.549 32.4873 143.389 32.5093 143.232C32.5312 143.075 32.5836 142.924 32.6632 142.789C32.7429 142.653 32.8481 142.536 32.9726 142.445C33.097 142.354 33.2379 142.29 33.3869 142.257L66.7875 134.916C68.0916 135.682 67.6794 137.108 66.7226 137.318L66.723 137.318Z" fill="#CCCCCC"/>
<path d="M67.9362 143.319L35.1242 150.53C34.8371 150.6 34.5353 150.553 34.28 150.4C34.0247 150.246 33.8348 149.997 33.7488 149.703C33.7094 149.55 33.7005 149.39 33.7224 149.233C33.7443 149.076 33.7967 148.925 33.8764 148.79C33.956 148.654 34.0613 148.538 34.1857 148.446C34.3101 148.355 34.4511 148.291 34.6 148.258L68.0006 140.917C69.3047 141.684 68.8925 143.109 67.9358 143.319L67.9362 143.319Z" fill="#CCCCCC"/>
<path d="M28.7218 155.506L18.7079 157.707C18.3809 157.779 18.04 157.712 17.76 157.522C17.4801 157.331 17.284 157.033 17.2147 156.692L14.7239 144.371C14.6553 144.03 14.7192 143.674 14.9017 143.382C15.0842 143.091 15.3703 142.886 15.6972 142.814L25.711 140.613C26.0381 140.542 26.3789 140.608 26.6588 140.799C26.9387 140.989 27.1348 141.287 27.2042 141.628L29.695 153.949C29.7636 154.29 29.6997 154.646 29.5172 154.938C29.3347 155.23 29.0487 155.434 28.7218 155.506V155.506Z" fill="#CCCCCC"/>
<path d="M70.3247 155.627L20.2476 166.633C19.9605 166.703 19.6588 166.656 19.4034 166.502C19.1481 166.349 18.9582 166.1 18.8722 165.806C18.8328 165.652 18.8239 165.492 18.8458 165.335C18.8677 165.178 18.9201 165.028 18.9998 164.892C19.0794 164.757 19.1847 164.64 19.3091 164.549C19.4335 164.457 19.5745 164.393 19.7234 164.361L70.3895 153.225C71.6936 153.992 71.2815 155.417 70.3247 155.627Z" fill="#CCCCCC"/>
<path d="M71.5382 161.63L21.4611 172.636C21.174 172.705 20.8723 172.659 20.6169 172.505C20.3616 172.351 20.1717 172.103 20.0857 171.809C20.0463 171.655 20.0374 171.495 20.0593 171.338C20.0812 171.181 20.1336 171.03 20.2133 170.895C20.293 170.76 20.3982 170.643 20.5226 170.552C20.647 170.46 20.788 170.396 20.9369 170.363L71.603 159.228C72.9072 159.994 72.495 161.42 71.5382 161.63Z" fill="#CCCCCC"/>
<path d="M72.7508 167.629L22.6737 178.635C22.3866 178.704 22.0849 178.658 21.8296 178.504C21.5742 178.35 21.3844 178.101 21.2983 177.807C21.259 177.654 21.25 177.494 21.272 177.337C21.2939 177.18 21.3463 177.029 21.4259 176.894C21.5056 176.759 21.6108 176.642 21.7353 176.551C21.8597 176.459 22.0006 176.395 22.1496 176.362L72.8157 165.227C74.1198 165.993 73.7076 167.419 72.7508 167.629Z" fill="#CCCCCC"/>
<path d="M73.9643 173.631L23.8873 184.637C23.6001 184.707 23.2984 184.66 23.0431 184.506C22.7877 184.353 22.5979 184.104 22.5118 183.81C22.4725 183.657 22.4635 183.497 22.4855 183.34C22.5074 183.182 22.5598 183.032 22.6394 182.897C22.7191 182.761 22.8243 182.644 22.9488 182.553C23.0732 182.462 23.2141 182.398 23.3631 182.365L74.0292 171.229C75.3333 171.996 74.9211 173.421 73.9643 173.631Z" fill="#CCCCCC"/>
<path d="M75.1771 179.631L25.1 190.637C24.8129 190.706 24.5112 190.659 24.2558 190.506C24.0005 190.352 23.8106 190.103 23.7246 189.809C23.6853 189.656 23.6763 189.496 23.6982 189.339C23.7202 189.182 23.7726 189.031 23.8522 188.896C23.9319 188.761 24.0371 188.644 24.1615 188.552C24.2859 188.461 24.4269 188.397 24.5758 188.364L75.2419 177.229C76.5461 177.995 76.1339 179.42 75.1771 179.631Z" fill="#CCCCCC"/>
<path d="M84.0168 152.156C83.9031 152.371 83.8058 152.596 83.7258 152.827L63.225 158.131L59.6586 154.284L53.387 159.137L59.0658 166.587C59.5246 167.189 60.1582 167.62 60.8716 167.814C61.585 168.009 62.3396 167.956 63.0222 167.666L85.2675 158.188C85.9987 158.749 86.8764 159.065 87.7839 159.093C88.6914 159.121 89.5857 158.861 90.3478 158.347C91.1099 157.832 91.7037 157.088 92.0503 156.213C92.3969 155.338 92.4797 154.374 92.2878 153.448C92.096 152.523 91.6385 151.681 90.9763 151.033C90.314 150.385 89.4784 149.963 88.5805 149.823C87.6826 149.683 86.765 149.831 85.9498 150.248C85.1346 150.664 84.4604 151.33 84.0169 152.156L84.0168 152.156Z" fill="#A0616A"/>
<path d="M14.04 199.36C14.6791 199.154 15.2672 198.805 15.7628 198.336C16.2584 197.868 16.6494 197.292 16.9084 196.649C17.1674 196.006 17.2881 195.311 17.2618 194.614C17.2356 193.917 17.0631 193.235 16.7566 192.615L30.8647 151.729L21.0671 149.918L10.28 190.678C9.31541 191.284 8.59749 192.237 8.26231 193.358C7.92713 194.479 7.99798 195.69 8.46144 196.76C8.9249 197.83 9.74876 198.686 10.7769 199.165C11.8051 199.644 12.9661 199.714 14.04 199.36Z" fill="#A0616A"/>
<path d="M29.073 158.986L19.3993 155.115C19.1241 155.005 18.8749 154.834 18.6686 154.615C18.4623 154.395 18.3039 154.132 18.2041 153.842C18.1042 153.553 18.0654 153.245 18.0901 152.939C18.1149 152.632 18.2026 152.335 18.3474 152.067L23.4222 142.686C23.9708 141.221 25.0541 140.042 26.4346 139.409C27.8151 138.775 29.3802 138.738 30.7868 139.306C32.1933 139.874 33.3266 141 33.9381 142.438C34.5496 143.875 34.5894 145.507 34.0489 146.975L31.8104 157.455C31.7463 157.755 31.6208 158.037 31.4427 158.282C31.2645 158.527 31.0378 158.729 30.778 158.874C30.5182 159.02 30.2315 159.105 29.9372 159.124C29.643 159.144 29.3482 159.097 29.073 158.986V158.986Z" fill="#DC1637"/>
<path d="M50.9077 276.123L56.1295 276.122L58.6134 255.122L50.9069 255.123L50.9077 276.123Z" fill="#A0616A"/>
<path d="M49.5757 274.345L59.8589 274.345H59.8594C60.72 274.345 61.5721 274.522 62.3672 274.865C63.1623 275.208 63.8848 275.712 64.4933 276.346C65.1019 276.981 65.5846 277.734 65.9139 278.563C66.2432 279.392 66.4127 280.28 66.4127 281.178V281.4L49.576 281.4L49.5757 274.345Z" fill="#2F2E41"/>
<path d="M21.5194 276.123L26.7412 276.122L29.2251 255.122L21.5186 255.123L21.5194 276.123Z" fill="#A0616A"/>
<path d="M20.1874 274.345L30.4706 274.345H30.4711C31.3317 274.345 32.1838 274.522 32.9789 274.865C33.774 275.208 34.4965 275.712 35.105 276.346C35.7135 276.981 36.1963 277.734 36.5256 278.563C36.8549 279.392 37.0244 280.28 37.0244 281.178V281.4L20.1877 281.4L20.1874 274.345Z" fill="#2F2E41"/>
<path d="M26.9934 267.67H20.3855C20.1261 267.67 19.8695 267.615 19.6311 267.509C19.3926 267.403 19.1774 267.247 18.9984 267.051C18.8195 266.855 18.6804 266.624 18.5898 266.37C18.4991 266.117 18.4587 265.847 18.471 265.577L21.6098 195.263L21.8076 195.257L53.7169 194.39L59.9611 264.744C59.9851 265.008 59.9585 265.274 59.883 265.527C59.8075 265.78 59.6845 266.015 59.5212 266.218C59.3579 266.421 59.1575 266.588 58.9317 266.709C58.7059 266.831 58.4592 266.904 58.2059 266.925L50.7838 267.544C50.3175 267.583 49.8537 267.443 49.4798 267.15C49.1059 266.857 48.8475 266.431 48.7534 265.953L39.2596 215.87C39.2337 215.718 39.1563 215.581 39.0415 215.483C38.9267 215.385 38.782 215.334 38.6339 215.338H38.6313C38.4826 215.334 38.3377 215.387 38.2231 215.485C38.1084 215.584 38.0316 215.722 38.0068 215.875L28.874 266.058C28.7875 266.512 28.5529 266.921 28.21 267.215C27.8672 267.509 27.4373 267.67 26.9934 267.67Z" fill="#2F2E41"/>
<path d="M39.0979 132.551C44.8754 132.551 49.5589 127.668 49.5589 121.644C49.5589 115.62 44.8754 110.736 39.0979 110.736C33.3205 110.736 28.637 115.62 28.637 121.644C28.637 127.668 33.3205 132.551 39.0979 132.551Z" fill="#A0616A"/>
<path d="M35.5902 203.503C30.6043 203.503 25.4831 202.136 21.2376 198.096C21.0117 197.882 20.8373 197.616 20.7285 197.319C20.6198 197.022 20.5798 196.703 20.6118 196.386C21.0662 192.129 23.2704 170.149 22.0291 155.466C21.7868 152.723 22.1592 149.96 23.1168 147.393C24.0744 144.826 25.5911 142.526 27.5471 140.675C29.4688 138.829 31.7759 137.473 34.2862 136.715C36.7965 135.957 39.4414 135.818 42.0121 136.308H42.0122C42.1425 136.333 42.2727 136.358 42.4031 136.384C50.7782 138.074 56.5972 146.156 55.9388 155.183C54.978 168.355 54.1167 186.172 55.4691 196.248C55.5251 196.66 55.4561 197.08 55.2716 197.449C55.0872 197.818 54.7966 198.118 54.4406 198.307C51.3634 199.928 43.6537 203.503 35.5902 203.503Z" fill="#DC1637"/>
<path d="M49.2406 159.771C48.9952 159.601 48.7878 159.377 48.6328 159.116C48.4777 158.854 48.3786 158.561 48.3422 158.256L47.0677 147.602C46.6631 146.087 46.8512 144.467 47.5908 143.096C48.3304 141.725 49.561 140.716 51.013 140.29C52.465 139.864 54.0197 140.056 55.3363 140.823C56.653 141.59 57.6241 142.871 58.0368 144.384L62.2348 154.225C62.3546 154.506 62.4149 154.811 62.4116 155.118C62.4084 155.425 62.3416 155.728 62.2159 156.006C62.0902 156.285 61.9085 156.531 61.6832 156.729C61.4579 156.928 61.1942 157.073 60.9102 157.155L50.9279 160.052C50.6438 160.134 50.3461 160.152 50.0549 160.103C49.7637 160.055 49.486 159.942 49.2406 159.771Z" fill="#DC1637"/>
<path d="M35.4461 132.397C34.4559 132.416 33.472 132.231 32.551 131.851C32.1458 131.688 31.7252 131.554 31.3207 131.391C27.7487 129.952 25.3957 125.986 25.3114 121.994C25.2271 118.002 27.2097 114.128 30.1537 111.575C33.0977 109.021 36.9109 107.71 40.7292 107.407C44.8421 107.081 49.4734 108.168 51.7716 111.74C52.3834 112.69 52.8112 113.844 52.4488 114.992C52.3402 115.338 52.1463 115.649 51.8864 115.892C50.8601 116.844 49.8368 116.128 48.7905 116.065C47.3524 115.978 46.0607 117.192 45.5964 118.614C45.1322 120.036 45.3366 121.601 45.7114 123.051C45.997 123.924 46.177 124.83 46.2473 125.75C46.2776 126.211 46.1944 126.672 46.0058 127.09C45.8171 127.508 45.5292 127.869 45.1694 128.138C44.2707 128.705 43.0905 128.377 42.1914 127.811C41.2922 127.246 40.5152 126.46 39.544 126.044C38.5727 125.627 37.2678 125.72 36.7025 126.642C36.5228 126.978 36.4012 127.344 36.3432 127.724C35.8364 130.131 35.9529 129.99 35.4461 132.397V132.397Z" fill="#2F2E41"/>
<path d="M81.6346 282H0.710341C0.597381 282 0.489047 281.953 0.409172 281.87C0.329297 281.787 0.284424 281.674 0.284424 281.556C0.284424 281.438 0.329297 281.325 0.409172 281.242C0.489047 281.159 0.597381 281.112 0.710341 281.112H81.6346C81.7476 281.112 81.8559 281.159 81.9358 281.242C82.0157 281.325 82.0605 281.438 82.0605 281.556C82.0605 281.674 82.0157 281.787 81.9358 281.87C81.8559 281.953 81.7476 282 81.6346 282Z" fill="#CCCCCC"/>
<path d="M288.777 190.352L230.828 224.244C229.152 225.221 227.174 225.466 225.326 224.924C223.478 224.382 221.912 223.098 220.971 221.353L194.508 172.163C193.571 170.416 193.337 168.353 193.856 166.426C194.376 164.499 195.608 162.866 197.281 161.885L255.23 127.993C256.906 127.016 258.884 126.771 260.732 127.313C262.58 127.855 264.146 129.139 265.087 130.884L291.55 180.074C292.487 181.821 292.721 183.884 292.202 185.811C291.682 187.738 290.45 189.371 288.777 190.352Z" fill="white"/>
<path d="M288.777 190.352L230.828 224.244C229.152 225.221 227.174 225.466 225.326 224.924C223.478 224.382 221.912 223.098 220.971 221.353L194.508 172.163C193.571 170.416 193.337 168.353 193.856 166.426C194.376 164.499 195.608 162.866 197.281 161.885L255.23 127.993C256.906 127.016 258.884 126.771 260.732 127.313C262.58 127.855 264.146 129.139 265.087 130.884L291.55 180.074C292.487 181.821 292.721 183.884 292.202 185.811C291.682 187.738 290.45 189.371 288.777 190.352ZM197.698 162.66C196.221 163.525 195.135 164.966 194.676 166.667C194.217 168.367 194.424 170.187 195.251 171.728L221.714 220.918C222.544 222.458 223.926 223.591 225.556 224.069C227.187 224.547 228.933 224.332 230.411 223.469L288.36 189.577C289.837 188.712 290.923 187.271 291.382 185.57C291.841 183.87 291.634 182.05 290.807 180.509L264.345 131.319C263.514 129.779 262.132 128.646 260.502 128.168C258.871 127.69 257.125 127.905 255.647 128.768L197.698 162.66Z" fill="#3F3D56"/>
<path d="M256.59 146.617L227.344 163.722C227.09 163.878 226.789 163.927 226.501 163.86C226.213 163.793 225.961 163.614 225.794 163.361C225.713 163.227 225.658 163.077 225.634 162.92C225.61 162.763 225.617 162.603 225.654 162.449C225.692 162.295 225.759 162.151 225.851 162.025C225.944 161.899 226.06 161.794 226.193 161.716L255.963 144.305C257.428 144.63 257.443 146.118 256.59 146.617L256.59 146.617Z" fill="#CCCCCC"/>
<path d="M259.468 151.966L230.222 169.071C229.967 169.227 229.666 169.276 229.378 169.209C229.091 169.142 228.838 168.963 228.672 168.71C228.59 168.576 228.536 168.426 228.512 168.269C228.488 168.112 228.495 167.952 228.532 167.798C228.569 167.644 228.636 167.5 228.729 167.374C228.821 167.248 228.937 167.143 229.07 167.065L258.841 149.654C260.305 149.979 260.32 151.467 259.467 151.966L259.468 151.966Z" fill="#CCCCCC"/>
<path d="M225.538 175.814L216.612 181.034C216.32 181.204 215.976 181.247 215.654 181.153C215.333 181.058 215.06 180.835 214.896 180.531L208.988 169.549C208.825 169.244 208.784 168.885 208.874 168.55C208.965 168.215 209.179 167.93 209.471 167.76L218.396 162.539C218.688 162.369 219.032 162.327 219.354 162.421C219.676 162.515 219.948 162.739 220.112 163.043L226.02 174.025C226.183 174.329 226.224 174.688 226.134 175.024C226.043 175.359 225.829 175.643 225.538 175.814L225.538 175.814Z" fill="#CCCCCC"/>
<path d="M265.274 162.968L220.639 189.073C220.385 189.229 220.084 189.278 219.796 189.211C219.509 189.144 219.256 188.965 219.09 188.712C219.008 188.578 218.954 188.428 218.93 188.271C218.906 188.114 218.912 187.954 218.95 187.8C218.987 187.646 219.054 187.502 219.146 187.376C219.239 187.25 219.355 187.145 219.488 187.067L264.648 160.655C266.112 160.98 266.127 162.469 265.274 162.968Z" fill="#CCCCCC"/>
<path d="M268.153 168.318L223.518 194.423C223.264 194.579 222.962 194.628 222.675 194.561C222.387 194.494 222.134 194.316 221.968 194.062C221.887 193.928 221.832 193.778 221.808 193.622C221.784 193.465 221.791 193.305 221.828 193.151C221.865 192.997 221.932 192.853 222.025 192.727C222.117 192.601 222.233 192.496 222.366 192.418L267.526 166.006C268.991 166.331 269.006 167.819 268.153 168.318V168.318Z" fill="#CCCCCC"/>
<path d="M271.029 173.665L226.394 199.77C226.14 199.926 225.839 199.975 225.551 199.908C225.263 199.841 225.011 199.663 224.845 199.409C224.763 199.275 224.709 199.125 224.685 198.969C224.66 198.812 224.667 198.652 224.705 198.498C224.742 198.344 224.809 198.2 224.901 198.074C224.994 197.948 225.11 197.843 225.243 197.765L270.403 171.353C271.867 171.678 271.882 173.166 271.029 173.665Z" fill="#CCCCCC"/>
<path d="M273.907 179.015L229.272 205.12C229.018 205.276 228.717 205.326 228.429 205.259C228.141 205.191 227.889 205.013 227.723 204.759C227.641 204.625 227.587 204.475 227.563 204.319C227.538 204.162 227.545 204.002 227.583 203.848C227.62 203.694 227.687 203.55 227.779 203.424C227.872 203.298 227.988 203.193 228.121 203.115L273.281 176.703C274.745 177.028 274.76 178.516 273.907 179.015H273.907Z" fill="#CCCCCC"/>
<path d="M276.784 184.363L232.149 210.468C231.895 210.624 231.593 210.673 231.306 210.606C231.018 210.539 230.766 210.361 230.599 210.107C230.518 209.973 230.463 209.823 230.439 209.666C230.415 209.509 230.422 209.349 230.459 209.195C230.497 209.041 230.563 208.897 230.656 208.771C230.749 208.645 230.865 208.54 230.997 208.462L276.158 182.05C277.622 182.375 277.637 183.864 276.784 184.363V184.363Z" fill="#CCCCCC"/>
<path d="M268.997 204.402C269.24 203.842 269.363 203.235 269.356 202.621C269.349 202.007 269.214 201.402 268.959 200.849C268.704 200.296 268.335 199.808 267.88 199.419C267.424 199.03 266.893 198.751 266.322 198.599L265.108 183.734L259.271 188.535L261.318 201.916C261.138 202.932 261.322 203.982 261.834 204.866C262.346 205.751 263.152 206.409 264.099 206.715C265.045 207.021 266.067 206.955 266.969 206.529C267.872 206.102 268.594 205.345 268.997 204.402Z" fill="#FFB8B8"/>
<path d="M265.219 197.042L260.37 197.645C260.124 197.676 259.874 197.653 259.637 197.578C259.399 197.504 259.179 197.379 258.99 197.211C258.801 197.044 258.647 196.837 258.538 196.605C258.429 196.373 258.368 196.119 258.357 195.861L257.65 178.807L248.46 152.629C248.091 151.817 247.923 150.921 247.971 150.024C248.019 149.127 248.281 148.257 248.733 147.492C248.958 147.122 249.216 146.776 249.503 146.456C250.068 145.821 250.773 145.338 251.556 145.048C252.339 144.758 253.178 144.669 254.001 144.79C254.849 144.908 255.658 145.235 256.361 145.744C257.063 146.253 257.639 146.929 258.04 147.717L264.034 160.812C266.541 166.289 267.724 172.322 267.481 178.386L266.806 195.256C266.788 195.697 266.621 196.118 266.336 196.444C266.05 196.771 265.663 196.981 265.242 197.039L265.219 197.042Z" fill="#DC1637"/>
<path d="M282.437 270.748L277.942 272.805L268.192 255.706L274.826 252.67L282.437 270.748Z" fill="#FFB8B8"/>
<path d="M285.496 274.767L271.002 281.4L270.922 281.209C270.596 280.437 270.42 279.605 270.403 278.762C270.386 277.918 270.529 277.08 270.823 276.294C271.117 275.508 271.556 274.79 272.116 274.181C272.676 273.572 273.346 273.084 274.086 272.745L274.087 272.745L282.939 268.693L285.496 274.767Z" fill="#2F2E41"/>
<path d="M222.089 276.439H217.18L214.845 256.696L222.09 256.696L222.089 276.439Z" fill="#FFB8B8"/>
<path d="M223.341 281.4L207.512 281.4V281.191C207.512 280.347 207.671 279.512 207.981 278.733C208.291 277.953 208.744 277.245 209.316 276.649C209.889 276.052 210.568 275.579 211.315 275.256C212.063 274.933 212.864 274.767 213.673 274.767H213.673L223.341 274.768L223.341 281.4Z" fill="#2F2E41"/>
<path d="M269.883 269.689L242.537 206.058C242.487 205.939 242.404 205.839 242.297 205.771C242.191 205.704 242.067 205.672 241.943 205.681C241.818 205.691 241.7 205.74 241.604 205.822C241.507 205.905 241.438 206.016 241.405 206.142L224.743 267.602C224.633 268.032 224.38 268.407 224.028 268.66C223.676 268.912 223.25 269.025 222.825 268.979L213.725 268.03C213.256 267.979 212.825 267.739 212.523 267.361C212.221 266.984 212.072 266.499 212.108 266.008C215.002 228.472 219.565 193.045 233.234 169.853L233.306 169.73L253.982 173.957L281.585 265.606C281.721 266.078 281.675 266.587 281.456 267.024C281.237 267.461 280.863 267.791 280.413 267.944L272.089 270.734C271.663 270.878 271.2 270.851 270.792 270.658C270.384 270.465 270.06 270.119 269.883 269.689Z" fill="#2F2E41"/>
<path d="M243.3 137.258C248.731 137.258 253.134 132.667 253.134 127.004C253.134 121.34 248.731 116.749 243.3 116.749C237.868 116.749 233.465 121.34 233.465 127.004C233.465 132.667 237.868 137.258 243.3 137.258Z" fill="#FFB8B8"/>
<path d="M231.963 171.628L231.838 171.602L231.808 171.472C230.483 165.639 230.451 159.272 231.714 152.551C232.355 149.116 234.137 146.026 236.748 143.827C239.358 141.627 242.63 140.459 245.986 140.527C249.627 140.604 253.102 142.129 255.7 144.79C258.299 147.451 259.824 151.046 259.963 154.841C260.385 166.401 255.854 176.424 255.808 176.524L255.741 176.671L231.963 171.628Z" fill="#DC1637"/>
<path d="M205.599 191.137C206.181 191.047 206.738 190.825 207.229 190.487C207.72 190.149 208.134 189.703 208.442 189.18C208.75 188.656 208.944 188.069 209.011 187.459C209.077 186.85 209.015 186.232 208.828 185.65L220.156 176.535L213.123 174.018L203.444 183.06C202.527 183.453 201.78 184.182 201.345 185.11C200.909 186.039 200.815 187.101 201.081 188.097C201.347 189.092 201.953 189.952 202.786 190.512C203.619 191.072 204.619 191.295 205.599 191.137V191.137Z" fill="#FFB8B8"/>
<path d="M211.786 184.262C211.417 184.49 210.983 184.572 210.561 184.494C210.139 184.417 209.758 184.184 209.486 183.839L206.374 179.916C206.216 179.717 206.099 179.486 206.03 179.237C205.962 178.989 205.943 178.728 205.976 178.471C206.009 178.215 206.092 177.968 206.22 177.747C206.349 177.526 206.519 177.334 206.722 177.185L220.088 167.329L236.216 145.095C236.671 144.333 237.302 143.7 238.051 143.256C238.801 142.812 239.644 142.57 240.506 142.553C240.926 142.55 241.345 142.588 241.758 142.666C242.576 142.818 243.347 143.174 244.005 143.703C244.663 144.233 245.189 144.921 245.537 145.708C245.901 146.515 246.076 147.4 246.046 148.292C246.016 149.183 245.783 150.054 245.365 150.833L233.423 170.997L233.397 171.042L211.786 184.262Z" fill="#DC1637"/>
<path d="M245.059 126.367C244.334 125.124 242.734 124.773 241.345 124.915C239.957 125.057 238.606 125.565 237.211 125.554C233.336 125.523 230.345 120.599 231.974 116.934C233.31 113.927 236.647 112.607 239.665 111.571C245.993 109.399 253.263 107.312 259.005 110.834C260.835 111.99 262.336 113.634 263.353 115.596C264.37 117.559 264.866 119.769 264.789 121.999C264.66 124.771 263.642 127.618 264.503 130.244C265.496 133.273 268.646 134.898 271.622 135.685C276.84 137.063 282.342 136.841 287.592 138.077C292.842 139.313 298.222 142.596 299.638 148.011C300.567 151.567 299.597 155.396 297.991 158.68C296.352 162.03 294.074 164.996 291.297 167.397C288.521 169.797 285.303 171.582 281.842 172.64C278.38 173.699 274.748 174.009 271.168 173.553C267.587 173.097 264.134 171.884 261.019 169.987C254.672 166.123 250.089 159.591 247.357 152.476C245.808 148.326 244.718 144.006 244.107 139.598C243.495 135.472 244.014 131.302 245.122 127.29C245.175 127.141 245.196 126.981 245.185 126.822C245.174 126.663 245.131 126.508 245.059 126.367Z" fill="#2F2E41"/>
<path d="M280.538 282H199.614C199.501 282 199.392 281.953 199.312 281.87C199.233 281.787 199.188 281.674 199.188 281.556C199.188 281.438 199.233 281.325 199.312 281.242C199.392 281.159 199.501 281.112 199.614 281.112H280.538C280.651 281.112 280.759 281.159 280.839 281.242C280.919 281.325 280.964 281.438 280.964 281.556C280.964 281.674 280.919 281.787 280.839 281.87C280.759 281.953 280.651 282 280.538 282Z" fill="#CCCCCC"/>
</g>
<defs>
<clipPath id="clip0_3_254">
<rect width="300" height="282" fill="white"/>
</clipPath>
</defs>
</svg>
